<svg xmlns="http://www.w3.org/2000/svg" version="1.1" xmlns:xlink="http://www.w3.org/1999/xlink" xmlns:svgjs="http://svgjs.dev/svgjs" viewBox="0 0 1422 800"><defs><linearGradient x1="50%" y1="0%" x2="50%" y2="100%" id="oooscillate-grad"><stop stop-color="hsl(180, 69%, 40%)" stop-opacity="1" offset="0%"></stop><stop stop-color="hsl(180, 69%, 60%)" stop-opacity="1" offset="100%"></stop></linearGradient></defs><g stroke-width="3" stroke="url(#oooscillate-grad)" fill="none" stroke-linecap="round"><path d="M 0 1764 Q 355.5 -100 711 400 Q 1066.5 900 1422 1764" opacity="0.05"></path><path d="M 0 1736 Q 355.5 -100 711 400 Q 1066.5 900 1422 1736" opacity="0.07"></path><path d="M 0 1708 Q 355.5 -100 711 400 Q 1066.5 900 1422 1708" opacity="0.08"></path><path d="M 0 1680 Q 355.5 -100 711 400 Q 1066.5 900 1422 1680" opacity="0.10"></path><path d="M 0 1652 Q 355.5 -100 711 400 Q 1066.5 900 1422 1652" opacity="0.11"></path><path d="M 0 1624 Q 355.5 -100 711 400 Q 1066.5 900 1422 1624" opacity="0.13"></path><path d="M 0 1596 Q 355.5 -100 711 400 Q 1066.5 900 1422 1596" opacity="0.14"></path><path d="M 0 1568 Q 355.5 -100 711 400 Q 1066.5 900 1422 1568" opacity="0.16"></path><path d="M 0 1540 Q 355.5 -100 711 400 Q 1066.5 900 1422 1540" opacity="0.17"></path><path d="M 0 1512 Q 355.5 -100 711 400 Q 1066.5 900 1422 1512" opacity="0.19"></path><path d="M 0 1484 Q 355.5 -100 711 400 Q 1066.5 900 1422 1484" opacity="0.20"></path><path d="M 0 1456 Q 355.5 -100 711 400 Q 1066.5 900 1422 1456" opacity="0.22"></path><path d="M 0 1428 Q 355.5 -100 711 400 Q 1066.5 900 1422 1428" opacity="0.23"></path><path d="M 0 1400 Q 355.5 -100 711 400 Q 1066.5 900 1422 1400" opacity="0.25"></path><path d="M 0 1372 Q 355.5 -100 711 400 Q 1066.5 900 1422 1372" opacity="0.26"></path><path d="M 0 1344 Q 355.5 -100 711 400 Q 1066.5 900 1422 1344" opacity="0.28"></path><path d="M 0 1316 Q 355.5 -100 711 400 Q 1066.5 900 1422 1316" opacity="0.30"></path><path d="M 0 1288 Q 355.5 -100 711 400 Q 1066.5 900 1422 1288" opacity="0.31"></path><path d="M 0 1260 Q 355.5 -100 711 400 Q 1066.5 900 1422 1260" opacity="0.33"></path><path d="M 0 1232 Q 355.5 -100 711 400 Q 1066.5 900 1422 1232" opacity="0.34"></path><path d="M 0 1204 Q 355.5 -100 711 400 Q 1066.5 900 1422 1204" opacity="0.36"></path><path d="M 0 1176 Q 355.5 -100 711 400 Q 1066.5 900 1422 1176" opacity="0.37"></path><path d="M 0 1148 Q 355.5 -100 711 400 Q 1066.5 900 1422 1148" opacity="0.39"></path><path d="M 0 1120 Q 355.5 -100 711 400 Q 1066.5 900 1422 1120" opacity="0.40"></path><path d="M 0 1092 Q 355.5 -100 711 400 Q 1066.5 900 1422 1092" opacity="0.42"></path><path d="M 0 1064 Q 355.5 -100 711 400 Q 1066.5 900 1422 1064" opacity="0.43"></path><path d="M 0 1036 Q 355.5 -100 711 400 Q 1066.5 900 1422 1036" opacity="0.45"></path><path d="M 0 1008 Q 355.5 -100 711 400 Q 1066.5 900 1422 1008" opacity="0.46"></path><path d="M 0 980 Q 355.5 -100 711 400 Q 1066.5 900 1422 980" opacity="0.48"></path><path d="M 0 952 Q 355.5 -100 711 400 Q 1066.5 900 1422 952" opacity="0.49"></path><path d="M 0 924 Q 355.5 -100 711 400 Q 1066.5 900 1422 924" opacity="0.51"></path><path d="M 0 896 Q 355.5 -100 711 400 Q 1066.5 900 1422 896" opacity="0.53"></path><path d="M 0 868 Q 355.5 -100 711 400 Q 1066.5 900 1422 868" opacity="0.54"></path><path d="M 0 840 Q 355.5 -100 711 400 Q 1066.5 900 1422 840" opacity="0.56"></path><path d="M 0 812 Q 355.5 -100 711 400 Q 1066.5 900 1422 812" opacity="0.57"></path><path d="M 0 784 Q 355.5 -100 711 400 Q 1066.5 900 1422 784" opacity="0.59"></path><path d="M 0 756 Q 355.5 -100 711 400 Q 1066.5 900 1422 756" opacity="0.60"></path><path d="M 0 728 Q 355.5 -100 711 400 Q 1066.5 900 1422 728" opacity="0.62"></path><path d="M 0 700 Q 355.5 -100 711 400 Q 1066.5 900 1422 700" opacity="0.63"></path><path d="M 0 672 Q 355.5 -100 711 400 Q 1066.5 900 1422 672" opacity="0.65"></path><path d="M 0 644 Q 355.5 -100 711 400 Q 1066.5 900 1422 644" opacity="0.66"></path><path d="M 0 616 Q 355.5 -100 711 400 Q 1066.5 900 1422 616" opacity="0.68"></path><path d="M 0 588 Q 355.5 -100 711 400 Q 1066.5 900 1422 588" opacity="0.69"></path><path d="M 0 560 Q 355.5 -100 711 400 Q 1066.5 900 1422 560" opacity="0.71"></path><path d="M 0 532 Q 355.5 -100 711 400 Q 1066.5 900 1422 532" opacity="0.72"></path><path d="M 0 504 Q 355.5 -100 711 400 Q 1066.5 900 1422 504" opacity="0.74"></path><path d="M 0 476 Q 355.5 -100 711 400 Q 1066.5 900 1422 476" opacity="0.75"></path><path d="M 0 448 Q 355.5 -100 711 400 Q 1066.5 900 1422 448" opacity="0.77"></path><path d="M 0 420 Q 355.5 -100 711 400 Q 1066.5 900 1422 420" opacity="0.79"></path><path d="M 0 392 Q 355.5 -100 711 400 Q 1066.5 900 1422 392" opacity="0.80"></path><path d="M 0 364 Q 355.5 -100 711 400 Q 1066.5 900 1422 364" opacity="0.82"></path><path d="M 0 336 Q 355.5 -100 711 400 Q 1066.5 900 1422 336" opacity="0.83"></path><path d="M 0 308 Q 355.5 -100 711 400 Q 1066.5 900 1422 308" opacity="0.85"></path><path d="M 0 280 Q 355.5 -100 711 400 Q 1066.5 900 1422 280" opacity="0.86"></path><path d="M 0 252 Q 355.5 -100 711 400 Q 1066.5 900 1422 252" opacity="0.88"></path><path d="M 0 224 Q 355.5 -100 711 400 Q 1066.5 900 1422 224" opacity="0.89"></path><path d="M 0 196 Q 355.5 -100 711 400 Q 1066.5 900 1422 196" opacity="0.91"></path><path d="M 0 168 Q 355.5 -100 711 400 Q 1066.5 900 1422 168" opacity="0.92"></path><path d="M 0 140 Q 355.5 -100 711 400 Q 1066.5 900 1422 140" opacity="0.94"></path><path d="M 0 112 Q 355.5 -100 711 400 Q 1066.5 900 1422 112" opacity="0.95"></path><path d="M 0 84 Q 355.5 -100 711 400 Q 1066.5 900 1422 84" opacity="0.97"></path><path d="M 0 56 Q 355.5 -100 711 400 Q 1066.5 900 1422 56" opacity="0.98"></path></g></svg>